<svg width="146" height="16" viewBox="0 0 146 16" fill="none" xmlns="http://www.w3.org/2000/svg">
<path d="M8.66 0.719999C8.47333 1.50667 8.28667 2.34667 8.1 3.24C7.92667 4.13333 7.78667 4.92667 7.68 5.62H4.94L4.8 5.4C4.98667 4.69333 5.23333 3.92 5.54 3.08C5.86 2.24 6.18667 1.45333 6.52 0.719999H8.66ZM4.1 0.719999C3.91333 1.50667 3.72667 2.34667 3.54 3.24C3.36667 4.13333 3.22667 4.92667 3.12 5.62H0.38L0.24 5.4C0.426667 4.69333 0.673333 3.92 0.98 3.08C1.3 2.24 1.62667 1.45333 1.96 0.719999H4.1ZM9.10156 1.875V15H14.2188V11.7969H18.7891L21.2598 15H26.709L23.8477 11.3184C24.707 10.918 25.4004 10.3125 25.918 9.52148C26.4453 8.7207 26.709 7.82227 26.709 6.83594C26.748 4.12109 24.4531 1.8457 21.748 1.875H9.10156ZM20.459 5.71289C21.084 5.71289 21.582 6.21094 21.582 6.83594C21.582 7.13867 21.4746 7.40234 21.25 7.62695C21.0352 7.8418 20.7715 7.94922 20.459 7.94922H14.2188V5.71289H20.459ZM28.3008 1.86523V14.9902H33.418V1.86523H28.3008ZM40.166 6.19141C40.166 5.14648 42.1191 4.91211 43.7109 4.91211C45.3125 4.91211 46.6699 5.15625 47.2559 6.19141H52.6172C52.1289 2.08984 48.3105 1.57227 43.7109 1.54297C39.1016 1.54297 34.8047 2.44141 34.8047 6.19141C34.7949 9.47266 39.9414 9.72656 43.6035 9.91211C45.6641 10.0098 47.2559 10.0977 47.2559 10.6738C47.2559 11.6895 45.3027 11.9531 43.7109 11.9531C42.1094 11.9531 40.752 11.6895 40.166 10.6738H34.8047C35.293 14.7461 39.1113 15.3027 43.7109 15.3125C48.3203 15.3125 52.6172 14.4238 52.6172 10.6738C52.627 7.38281 47.4805 7.12891 43.8184 6.94336C41.7578 6.8457 40.166 6.76758 40.166 6.19141ZM53.9844 1.86523V14.9902H59.1016V1.86523H53.9844ZM69.9512 5.71289L66.2695 1.88477H59.8633L66.748 8.44727L59.8633 15.0098H66.2695L69.9512 11.1719L73.6328 15.0098H80.0293L73.1445 8.44727L80.0293 1.88477H73.6328L69.9512 5.71289ZM93.5645 8.44727C93.5645 9.76562 92.8125 10.8496 91.4844 10.8496H85.8789V6.04492H91.4844C92.8125 6.04492 93.5645 7.11914 93.5645 8.44727ZM80.7617 1.88477V15.0098H92.4414C96.0449 15.0586 98.7207 12.0117 98.6914 8.44727C98.7207 4.86328 96.0449 1.83594 92.4414 1.88477H80.7617ZM108.252 6.04492L99.6094 10.8398V15.0098H116.572V10.8398H107.617L116.572 6.04492V1.88477H99.6094V6.04492H108.252ZM131.768 8.81836L126.006 1.86523H118.965V14.9902H124.082V6.97266L131.133 14.9902H136.895V1.86523H131.768V8.81836ZM145.61 0.719999L145.75 0.94C145.577 1.64667 145.33 2.42 145.01 3.26C144.69 4.1 144.363 4.88667 144.03 5.62H141.89C142.077 4.83333 142.263 3.99333 142.45 3.1C142.637 2.20667 142.777 1.41333 142.87 0.719999H145.61ZM141.05 0.719999L141.19 0.94C141.017 1.64667 140.77 2.42 140.45 3.26C140.13 4.1 139.803 4.88667 139.47 5.62H137.33C137.517 4.83333 137.703 3.99333 137.89 3.1C138.077 2.20667 138.217 1.41333 138.31 0.719999H141.05Z" fill="white"/>
</svg>
