<svg width="249" height="60" viewBox="0 0 249 60" fill="none" xmlns="http://www.w3.org/2000/svg">
<path d="M77.6139 44H69.7739L59.3339 28.24V44H51.4939V15.8H59.3339L69.7739 31.76V15.8H77.6139V44ZM99.9198 39.4H89.9198L88.3998 44H80.1598L90.4398 15.8H99.4798L109.72 44H101.44L99.9198 39.4ZM97.9598 33.4L94.9198 24.28L91.9198 33.4H97.9598ZM139.715 15.8L129.995 44H119.955L110.195 15.8H118.595L124.995 36.16L131.355 15.8H139.715ZM149.998 22.08V26.68H158.998V32.64H149.998V37.72H160.198V44H142.158V15.8H160.198V22.08H149.998ZM182.072 25.08C181.619 24.3333 180.992 23.76 180.192 23.36C179.419 22.96 178.499 22.76 177.432 22.76C175.459 22.76 173.899 23.4 172.752 24.68C171.632 25.96 171.072 27.68 171.072 29.84C171.072 32.2667 171.672 34.12 172.872 35.4C174.099 36.6533 175.872 37.28 178.192 37.28C180.939 37.28 182.899 36.04 184.072 33.56H176.192V27.92H190.832V35.52C190.219 37.0133 189.312 38.4133 188.112 39.72C186.939 41.0267 185.445 42.1067 183.632 42.96C181.819 43.7867 179.752 44.2 177.432 44.2C174.605 44.2 172.099 43.6 169.912 42.4C167.752 41.1733 166.072 39.48 164.872 37.32C163.699 35.1333 163.112 32.64 163.112 29.84C163.112 27.0667 163.699 24.6 164.872 22.44C166.072 20.2533 167.752 18.56 169.912 17.36C172.072 16.1333 174.565 15.52 177.392 15.52C180.939 15.52 183.872 16.3733 186.192 18.08C188.512 19.7867 189.952 22.12 190.512 25.08H182.072ZM212.185 39.4H202.185L200.665 44H192.425L202.705 15.8H211.745L221.985 44H213.705L212.185 39.4ZM210.225 33.4L207.185 24.28L204.185 33.4H210.225ZM238.821 44L233.221 33.6H232.381V44H224.541V15.8H236.901C239.167 15.8 241.087 16.2 242.661 17C244.234 17.7733 245.421 18.8533 246.221 20.24C247.021 21.6 247.421 23.1333 247.421 24.84C247.421 26.76 246.887 28.4533 245.821 29.92C244.781 31.36 243.247 32.3867 241.221 33L247.581 44H238.821ZM232.381 28.24H236.261C237.327 28.24 238.127 27.9867 238.661 27.48C239.194 26.9733 239.461 26.24 239.461 25.28C239.461 24.3733 239.181 23.6667 238.621 23.16C238.087 22.6267 237.301 22.36 236.261 22.36H232.381V28.24Z" fill="white"/>
<rect y="15" width="30" height="6" fill="white"/>
<rect y="27" width="30" height="6" fill="white"/>
<rect y="39" width="30" height="6" fill="white"/>
</svg>
